<?xml version="1.0" encoding="utf-8"?>
<!-- Generator: Adobe Illustrator 19.1.0, SVG Export Plug-In . SVG Version: 6.00 Build 0)  -->
<svg version="1.1" id="Layer_1" xmlns="http://www.w3.org/2000/svg" xmlns:xlink="http://www.w3.org/1999/xlink" x="0px" y="0px"
	 viewBox="0 0 1265 351.7" enable-background="new 0 0 1265 351.7" xml:space="preserve">
<g>
	<path fill="#FFFFFF" d="M65.3,95.3v34.8h1.4c8.7-14.5,20-25.1,33.9-31.7c13.9-6.6,28.1-9.9,42.6-9.9c18.4,0,33.5,2.5,45.2,7.5
		c11.8,5,21,11.9,27.8,20.8c6.8,8.9,11.5,19.7,14.3,32.4c2.7,12.8,4.1,26.8,4.1,42.3v153.8h-68.7V204.1c0-20.6-3.2-36-9.7-46.2
		c-6.5-10.2-17.9-15.2-34.3-15.2c-18.7,0-32.3,5.6-40.6,16.7c-8.4,11.1-12.6,29.4-12.6,54.9v131.1H0V95.3H65.3z"/>
	<path fill="#FFFFFF" d="M288.3,166.2c6.1-16.3,14.8-30.2,26.1-41.6c11.3-11.4,24.8-20.3,40.6-26.6c15.8-6.3,33.5-9.4,53.2-9.4
		c19.7,0,37.5,3.1,53.5,9.4c16,6.3,29.6,15.2,40.9,26.6c11.3,11.4,20,25.3,26.1,41.6c6.1,16.3,9.2,34.4,9.2,54.4
		c0,20-3.1,38.1-9.2,54.2c-6.1,16.1-14.8,29.9-26.1,41.4c-11.3,11.5-24.9,20.2-40.9,26.4c-16,6.1-33.8,9.2-53.5,9.2
		c-19.7,0-37.4-3.1-53.2-9.2c-15.8-6.1-29.3-14.9-40.6-26.4c-11.3-11.4-20-25.2-26.1-41.4c-6.1-16.1-9.2-34.2-9.2-54.2
		C279.1,200.6,282.2,182.5,288.3,166.2z M350.7,249.9c1.9,9.5,5.2,18.1,9.9,25.6c4.7,7.6,10.9,13.6,18.6,18.1
		c7.7,4.5,17.4,6.8,29,6.8c11.6,0,21.4-2.3,29.3-6.8c7.9-4.5,14.2-10.6,18.9-18.1c4.7-7.6,8-16.1,9.9-25.6
		c1.9-9.5,2.9-19.3,2.9-29.3c0-10-1-19.8-2.9-29.5c-1.9-9.7-5.2-18.2-9.9-25.6c-4.7-7.4-11-13.5-18.9-18.1c-7.9-4.7-17.7-7-29.3-7
		c-11.6,0-21.3,2.3-29,7c-7.7,4.7-13.9,10.7-18.6,18.1c-4.7,7.4-8,16-9.9,25.6c-1.9,9.7-2.9,19.5-2.9,29.5
		C347.8,230.6,348.8,240.4,350.7,249.9z"/>
	<path fill="#FFFFFF" d="M719.8,95.3v46h-50.3v123.8c0,11.6,1.9,19.4,5.8,23.2c3.9,3.9,11.6,5.8,23.2,5.8c3.9,0,7.6-0.2,11.1-0.5
		c3.5-0.3,6.9-0.8,10.2-1.4v53.2c-5.8,1-12.3,1.6-19.3,1.9c-7.1,0.3-14,0.5-20.8,0.5c-10.6,0-20.7-0.7-30.2-2.2
		c-9.5-1.5-17.9-4.3-25.2-8.5c-7.3-4.2-13-10.2-17.2-17.9c-4.2-7.7-6.3-17.9-6.3-30.5V141.3h-41.6v-46h41.6v-75h68.7v75H719.8z"/>
	<path fill="#FFFFFF" d="M872.2,140.3c-11,0-20.2,2.5-27.6,7.5c-7.4,5-13.5,11.4-18.1,19.3c-4.7,7.9-8,16.6-9.9,26.1
		c-1.9,9.5-2.9,18.9-2.9,28.3c0,9,1,18.2,2.9,27.6c1.9,9.4,5.1,17.8,9.4,25.4c4.4,7.6,10.2,13.8,17.7,18.6
		c7.4,4.8,16.4,7.3,27.1,7.3c16.4,0,29.1-4.6,38-13.8c8.9-9.2,14.4-21.5,16.7-37h66.3c-4.5,33.2-17.4,58.5-38.7,75.9
		s-48.5,26.1-81.8,26.1c-18.7,0-35.9-3.1-51.5-9.4c-15.6-6.3-29-15.1-39.9-26.4c-11-11.3-19.5-24.7-25.6-40.4
		c-6.1-15.6-9.2-32.8-9.2-51.5c0-19.4,2.8-37.3,8.5-53.9c5.6-16.6,13.9-31,24.9-43.1c11-12.1,24.3-21.5,40.1-28.3
		c15.8-6.8,33.9-10.2,54.2-10.2c14.8,0,29.1,1.9,42.8,5.8c13.7,3.9,26,9.8,36.8,17.7c10.8,7.9,19.6,17.7,26.4,29.5
		c6.8,11.8,10.6,25.7,11.6,41.8H923C918.5,154.6,901.5,140.3,872.2,140.3z"/>
	<path fill="#FFFFFF" d="M1099.1,0v130.1h1.5c8.7-14.5,19.8-25.1,33.4-31.7c13.5-6.6,26.8-9.9,39.7-9.9c18.4,0,33.5,2.5,45.2,7.5
		c11.8,5,21.1,11.9,27.8,20.8c6.8,8.9,11.5,19.7,14.3,32.4c2.7,12.8,4.1,26.8,4.1,42.3v153.8h-68.7V204.1c0-20.6-3.2-36-9.7-46.2
		c-6.5-10.2-17.9-15.2-34.4-15.2c-18.7,0-32.2,5.6-40.6,16.7c-8.4,11.1-12.6,29.4-12.6,54.9v131.1h-68.7V0H1099.1z"/>
</g>
</svg>
