<?xml version="1.0" encoding="utf-8"?>
<!-- Generator: Adobe Illustrator 16.0.4, SVG Export Plug-In . SVG Version: 6.00 Build 0)  -->
<!DOCTYPE svg PUBLIC "-//W3C//DTD SVG 1.1//EN" "http://www.w3.org/Graphics/SVG/1.1/DTD/svg11.dtd">
<svg version="1.1" id="Layer_1" xmlns="http://www.w3.org/2000/svg" xmlns:xlink="http://www.w3.org/1999/xlink" x="0px" y="0px"
	 width="100px" height="100px" viewBox="0 0 100 100" enable-background="new 0 0 100 100" xml:space="preserve">
<g>
	<g>
		<path fill-rule="evenodd" clip-rule="evenodd" fill="#26272A" d="M98,6.495H2c-1.105,0-2,0.896-2,2c0,1.105,0.895,2,2,2h96
			c1.105,0,2-0.895,2-2C100,7.391,99.105,6.495,98,6.495z M55.732,71.447C55.18,70.52,53.957,70.203,53,70.738
			c-0.957,0.537-1.285,1.721-0.732,2.648l12,20.154c0.553,0.928,1.775,1.246,2.732,0.709c0.957-0.533,1.285-1.721,0.732-2.646
			L55.732,71.447z M47,70.738c-0.957-0.535-2.181-0.219-2.732,0.709l-12,20.156c-0.553,0.926-0.225,2.113,0.732,2.646
			c0.956,0.537,2.18,0.219,2.731-0.709l12-20.154C48.284,72.459,47.956,71.275,47,70.738z M76.467,27.184L57.712,49.708
			L39.533,35.184c-0.016-0.016-0.034-0.026-0.05-0.041c-0.021-0.023-0.037-0.05-0.06-0.073c-0.748-0.748-1.961-0.748-2.709,0
			l-16.26,16.257c-0.748,0.75-0.748,1.963,0,2.711s1.962,0.748,2.71,0l14.906-14.907l18.438,14.73
			c0.021,0.021,0.034,0.046,0.056,0.067c0.396,0.397,0.916,0.593,1.436,0.589c0.519,0.004,1.039-0.191,1.436-0.589
			c0.12-0.12,0.216-0.255,0.3-0.395l19.573-23.507c0.785-0.785,0.785-2.059,0-2.844S77.252,26.399,76.467,27.184z"/>
	</g>
</g>
<path fill="#26272A" d="M88.832,10.526c1.75,0,3.168,1.391,3.168,3.105v53.73c0,1.717-1.418,3.107-3.168,3.107H11.166
	C9.418,70.469,8,69.078,8,67.361v-53.73c0-1.715,1.418-3.105,3.166-3.105H88.832 M88.832,6.526H11.166C7.215,6.526,4,9.713,4,13.631
	v53.73c0,3.919,3.215,7.107,7.166,7.107h77.666c3.952,0,7.168-3.188,7.168-7.107v-53.73C96,9.713,92.784,6.526,88.832,6.526
	L88.832,6.526z"/>
</svg>
