<?xml version="1.0" encoding="utf-8"?>
<!-- Generator: Adobe Illustrator 16.0.4, SVG Export Plug-In . SVG Version: 6.00 Build 0)  -->
<!DOCTYPE svg PUBLIC "-//W3C//DTD SVG 1.1//EN" "http://www.w3.org/Graphics/SVG/1.1/DTD/svg11.dtd">
<svg version="1.1" id="Layer_1" xmlns="http://www.w3.org/2000/svg" xmlns:xlink="http://www.w3.org/1999/xlink" x="0px" y="0px"
	 width="100px" height="100px" viewBox="0 0 100 100" enable-background="new 0 0 100 100" xml:space="preserve">
<g>
	<g>
		<path fill-rule="evenodd" clip-rule="evenodd" fill="#26272A" d="M12,88h32V52H12V88z M16,56h24v28H16V56z M56,88h32V52H56V88z
			 M60,56h24v28H60V56z M93.75,0.001H6.25C2.797,0.001,0,2.8,0,6.249V93.75C0,97.199,2.797,100,6.25,100h87.5
			c3.451,0,6.25-2.801,6.25-6.25V6.249C100,2.8,97.201,0.001,93.75,0.001z M96,92.004c0,2.207-1.791,4-4,4H8c-2.209,0-4-1.793-4-4
			V8.003c0-2.209,1.791-4,4-4h84c2.209,0,4,1.791,4,4V92.004z M12,43.999h76v-32H12V43.999z M16,15.999h68v24.002H16V15.999z"/>
	</g>
</g>
</svg>
