<?xml version="1.0" encoding="utf-8"?>
<!-- Generator: Adobe Illustrator 16.0.4, SVG Export Plug-In . SVG Version: 6.00 Build 0)  -->
<!DOCTYPE svg PUBLIC "-//W3C//DTD SVG 1.1//EN" "http://www.w3.org/Graphics/SVG/1.1/DTD/svg11.dtd">
<svg version="1.1" id="Layer_1" xmlns="http://www.w3.org/2000/svg" xmlns:xlink="http://www.w3.org/1999/xlink" x="0px" y="0px"
	 width="100px" height="100px" viewBox="0 0 100 100" enable-background="new 0 0 100 100" xml:space="preserve">
<g>
	<g>
		<path fill-rule="evenodd" clip-rule="evenodd" fill="#26272A" d="M95.965,12.647l-4.721-4.645
			c-2.607-2.564-6.727-2.672-9.201-0.24L45.83,43.384l-1.979,1.945v0l-9.771,9.612c-0.433,0.426-0.782,0.903-1.057,1.412
			c-4.914-0.778-11.466,0.002-18.02,6.238C4.322,72.758,21.096,84.295,2.006,93.826c0,0,37.01,2.611,44.439-12.908
			c1.809-3.776,1.57-7.68,0.553-11.106c0.445-0.254,0.866-0.561,1.246-0.935l12.323-12.121l0.263-0.258l0,0L96.209,21.7
			C98.682,19.265,98.572,15.214,95.965,12.647z M42.807,79.252c-3.652,7.639-18.393,10.102-29.688,10.654
			c3.361-4.885,2.781-9.967,2.314-14.061c-0.555-4.844-0.699-7.508,2.355-10.416c5.399-5.137,10.658-5.821,14.585-5.213
			c0.209,1.368,0.856,2.703,1.948,3.777l4.723,4.643c1.127,1.11,2.538,1.759,3.975,1.942C43.9,73.326,44.175,76.396,42.807,79.252z
			 M48.094,63.527c-2.355,2.32-6.176,2.32-8.531,0c-2.354-2.32-2.354-6.082,0-8.4l7.119-7.013l8.534,8.397L48.094,63.527z
			 M90.742,21.519L58.029,53.741l-8.533-8.398l32.717-32.227c2.355-2.318,6.174-2.318,8.529,0
			C93.098,15.438,93.098,19.198,90.742,21.519z"/>
	</g>
</g>
</svg>
