<?xml version="1.0" encoding="utf-8"?>
<!-- Generator: Adobe Illustrator 16.0.4, SVG Export Plug-In . SVG Version: 6.00 Build 0)  -->
<!DOCTYPE svg PUBLIC "-//W3C//DTD SVG 1.1//EN" "http://www.w3.org/Graphics/SVG/1.1/DTD/svg11.dtd">
<svg version="1.1" id="Layer_1" xmlns="http://www.w3.org/2000/svg" xmlns:xlink="http://www.w3.org/1999/xlink" x="0px" y="0px"
	 width="100px" height="100px" viewBox="0 0 100 100" enable-background="new 0 0 100 100" xml:space="preserve">
<g>
	<path fill="#26272A" d="M95.072,0.001H4.928C2.21,0.001,0,2.21,0,4.927v62.386h3.846V4.927c0-0.595,0.485-1.08,1.082-1.08h90.145
		c0.597,0,1.082,0.484,1.082,1.08v90.145c0,0.595-0.485,1.08-1.082,1.08h-62.38v3.846h62.38c2.718,0,4.928-2.21,4.928-4.926V4.927
		C100,2.21,97.79,0.001,95.072,0.001z"/>
	<path fill="#26272A" d="M53.738,74.989c5.42,0,10.84-2.071,14.976-6.212c8.273-8.286,8.273-21.717,0-30
		c-4.136-4.143-9.556-6.214-14.976-6.214s-10.841,2.071-14.977,6.214c-8.271,8.282-8.271,21.713,0,30
		C42.897,72.918,48.318,74.989,53.738,74.989z M41.483,41.495c3.274-3.279,7.626-5.085,12.255-5.085s8.98,1.806,12.255,5.086
		c6.763,6.771,6.763,17.79-0.001,24.563c-3.273,3.278-7.625,5.083-12.254,5.083s-8.981-1.805-12.254-5.082
		C34.723,59.286,34.722,48.266,41.483,41.495z"/>
</g>
<g>
	<g>
		<path fill-rule="evenodd" clip-rule="evenodd" fill="#26272A" d="M96.154,21.162H25V1.928h-3.846v19.234H3.846
			c-1.062,0-1.923,0.858-1.923,1.921s0.86,1.923,1.923,1.923h92.309c1.062,0,1.923-0.86,1.923-1.923S97.217,21.162,96.154,21.162z
			 M17.269,87.585l2.845,2.848l22.184-22.406l-2.624-2.622L17.269,87.585z"/>
	</g>
</g>
</svg>
