<?xml version="1.0" encoding="utf-8"?>
<!-- Generator: Adobe Illustrator 16.0.4, SVG Export Plug-In . SVG Version: 6.00 Build 0)  -->
<!DOCTYPE svg PUBLIC "-//W3C//DTD SVG 1.1//EN" "http://www.w3.org/Graphics/SVG/1.1/DTD/svg11.dtd">
<svg version="1.1" id="Layer_1" xmlns="http://www.w3.org/2000/svg" xmlns:xlink="http://www.w3.org/1999/xlink" x="0px" y="0px"
	 width="100px" height="100px" viewBox="0 0 100 100" enable-background="new 0 0 100 100" xml:space="preserve">
<path fill-rule="evenodd" clip-rule="evenodd" fill="#26272A" d="M99.969,48.003c0,12.725-6.265,24.035-15.992,31.354V100
	L66.775,87.08c-2.827,0.574-5.755,0.889-8.764,0.889c-9.569,0-18.36-3.087-25.42-8.225c1.77,0.166,3.563,0.258,5.383,0.258
	c0.851,0,1.698-0.02,2.54-0.057c5.226,2.561,11.145,4.031,17.435,4.031c3.57,0,7.013-0.5,10.288-1.371l11.741,9.408V77.278
	c9.651-6.522,15.965-17.186,15.965-29.268c0-9.363-3.812-17.863-10.007-24.262c-0.994-3.012-2.374-5.874-4.037-8.583
	C92.812,22.382,99.969,34.389,99.969,48.003z M75.988,36.024c0,19.897-17.004,36.028-37.979,36.028c-3.019,0-5.94-0.368-8.756-0.999
	L11.986,84.023V62.217C4.641,55.647,0.031,46.357,0.031,36.024C0.031,16.129,17.031,0,38.01,0C58.984,0,75.988,16.129,75.988,36.024
	z M72.032,36.04c0-17.664-15.234-31.979-34.022-31.979c-18.792,0-34.027,14.315-34.027,31.979c0,9.769,4.678,18.501,12.025,24.368
	v15.616l11.831-9.467c3.211,0.945,6.627,1.456,10.171,1.456C56.798,68.013,72.032,53.697,72.032,36.04z"/>
</svg>
