<?xml version="1.0" encoding="utf-8"?>
<!-- Generator: Adobe Illustrator 16.0.4, SVG Export Plug-In . SVG Version: 6.00 Build 0)  -->
<!DOCTYPE svg PUBLIC "-//W3C//DTD SVG 1.1//EN" "http://www.w3.org/Graphics/SVG/1.1/DTD/svg11.dtd">
<svg version="1.1" id="Layer_1" xmlns="http://www.w3.org/2000/svg" xmlns:xlink="http://www.w3.org/1999/xlink" x="0px" y="0px"
	 width="100px" height="100px" viewBox="0 0 100 100" enable-background="new 0 0 100 100" xml:space="preserve">
<path fill-rule="evenodd" clip-rule="evenodd" fill="#26272A" d="M69.199-0.001h-38.4C23.73-0.001,18,5.595,18,12.499v3.502v4V64v4
	v19.496C18,94.402,23.73,100,30.799,100h38.4C76.27,100,82,94.402,82,87.496V68v-4V20.001v-4v-3.502
	C82,5.595,76.27-0.001,69.199-0.001z M78,88.004c0,4.422-3.582,8-8,8H30c-4.418,0-8-3.578-8-8V68h56V88.004z M78,64H22V20.001h56V64
	z M22,16.001v-3.996c0-4.418,3.582-8,8-8h40c4.418,0,8,3.582,8,8v3.996H22z M43.977,82c0-3.312,2.695-6,6.023-6
	c3.326,0,6.023,2.688,6.023,6S53.326,87.996,50,87.996C46.672,87.996,43.977,85.312,43.977,82z"/>
</svg>
